<?xml version="1.0" encoding="UTF-8"?>
<svg data-bbox="0 0 1080 1080" viewBox="0 0 1080 1080" xmlns="http://www.w3.org/2000/svg" data-type="color">
    <g>
        <path fill="#c41227" d="M1080 540c0 298.234-241.766 540-540 540S0 838.234 0 540 241.766 0 540 0s540 241.766 540 540" data-color="1"/>
        <path d="M192.45 378.9h34.31c19.36 0 29.29 9.21 29.29 24.98s-10.04 24.87-29.29 24.87h-26.3v35.62h-8.01zm33.71 42.44c14.46 0 21.52-5.38 21.52-17.45s-7.05-17.57-21.52-17.57h-25.7v35.02z" fill="#000000" data-color="2"/>
        <path d="M280.67 378.9h10.4l33.35 85.47h-8.85l-9.8-25.7h-39.93l-9.8 25.7h-8.73l33.35-85.47Zm22.35 52.36-17.21-45.07-17.09 45.07h34.31Z" fill="#000000" data-color="2"/>
        <path d="M331.59 378.9h35.5c19.36 0 29.29 8.96 29.29 24.38 0 13.03-7.17 21.4-20.92 23.67l23.43 37.41h-9.32l-22.47-36.82h-27.49v36.82h-8.01v-85.47Zm34.91 41.24c14.46 0 21.52-5.14 21.52-16.86s-7.05-16.97-21.52-16.97h-26.9v33.83z" fill="#000000" data-color="2"/>
        <path d="M432.72 386.32h-29.29v-7.41h66.58v7.41h-29.29v78.06h-8.01v-78.06Z" fill="#000000" data-color="2"/>
        <path d="M480.77 379.14h11l50.32 76.74v-76.74h8.01v85.23h-11.59l-49.73-75.79v75.79h-8.01z" fill="#000000" data-color="2"/>
        <path d="M564.92 378.9h55.94v7.41h-47.93v31.56h46.02v7.29h-46.02v31.8h48.53v7.41h-56.54z" fill="#000000" data-color="2"/>
        <path d="M634.25 378.9h35.5c19.37 0 29.29 8.96 29.29 24.38 0 13.03-7.17 21.4-20.92 23.67l23.43 37.41h-9.32l-22.47-36.82h-27.49v36.82h-8.01v-85.47Zm34.91 41.24c14.46 0 21.52-5.14 21.52-16.86s-7.05-16.97-21.52-16.97h-26.9v33.83z" fill="#000000" data-color="2"/>
        <path d="M714.94 435.21c1.2 13.51 11 22.95 27.02 22.95 13.39 0 22.59-6.34 22.59-16.86 0-12.19-11.48-14.46-25.82-17.21-14.58-2.87-30.12-6.22-30.12-22.83 0-14.11 11.12-23.67 29.76-23.67 20.56 0 31.68 13.03 32.63 28.45h-8.25c-.96-11.47-9.32-20.92-24.62-20.92-12.67 0-21.04 6.57-21.04 15.9 0 11.12 11.95 13.51 24.86 16.02 16.02 3.23 30.96 6.46 30.96 23.79 0 15.66-13.39 24.86-31.2 24.86-21.04 0-34.19-13.03-35.02-30.48z" fill="#000000" data-color="2"/>
        <path d="M192.45 497.03h27.25c27.37 0 42.79 15.3 42.79 42.79s-15.42 42.68-42.91 42.68h-27.14v-85.47Zm27.26 78.05c22.35 0 34.43-11.6 34.43-35.26s-12.07-35.38-34.43-35.38h-19.25v70.65h19.25Z" fill="#000000" data-color="2"/>
        <path d="M274.45 497.03h55.94v7.41h-47.93V536h46.02v7.29h-46.02v31.8h48.53v7.41h-56.54z" fill="#000000" data-color="2"/>
        <path d="M343.9 497.27h11l50.33 76.74v-76.74h8.01v85.23h-11.59l-49.73-75.79v75.79h-8.01v-85.23Z" fill="#000000" data-color="2"/>
        <path d="M453.16 504.44h-29.29v-7.41h66.58v7.41h-29.29v78.06h-8.01v-78.06Z" fill="#000000" data-color="2"/>
        <path d="M513.05 497.03h10.4l33.35 85.47h-8.85l-9.8-25.7h-39.93l-9.8 25.7h-8.73l33.35-85.47Zm22.35 52.35-17.21-45.06-17.09 45.06h34.31Z" fill="#000000" data-color="2"/>
        <path d="M563.97 497.03h8.01v78.06h46.98v7.41h-54.99z" fill="#000000" data-color="2"/>
        <path d="M214.45 669.78c.84 7.53 4.78 11.6 11.83 11.6 5.26 0 8.97-1.79 8.97-5.74 0-3.59-1.67-5.5-15.18-8.25-22.83-4.54-31.92-10.76-31.92-26.9s13.27-27.13 35.86-27.13c24.62 0 37.06 13.39 37.89 32.04h-27.97c-.6-6.81-4.18-11-9.92-11-5.14 0-8.13 2.27-8.13 5.74 0 4.06 3.59 5.98 14.46 7.77 25.7 4.3 32.63 13.27 32.63 26.89 0 16.97-13.63 27.61-36.7 27.61-25.58 0-39.21-12.67-39.93-32.63h28.09Zm98.14-56.42c27.37 0 45.07 16.86 45.07 44.59s-17.57 44.47-45.07 44.47-45.3-16.85-45.3-44.47 17.93-44.59 45.3-44.59m-.12 67.53c10.64 0 17.45-8.13 17.45-22.95s-6.81-23.07-17.45-23.07-17.45 8.13-17.45 23.07 6.81 22.95 17.45 22.95m52.11-65.74h27.14v63.95h37.53v21.52h-64.67zm69.33 0h27.14v51.88c0 9.21 4.06 13.87 11.71 13.87s11.71-4.66 11.71-13.87v-51.88h27.14v52.84c0 21.52-15.06 34.43-38.97 34.43s-38.73-12.91-38.73-34.43zm108.66 21.52h-24.62v-21.52h76.5v21.52h-24.74v63.95h-27.13v-63.95Zm58.21-21.52h27.13v85.47h-27.13zm79.37-1.79c27.37 0 45.07 16.86 45.07 44.59s-17.57 44.47-45.07 44.47-45.3-16.85-45.3-44.47 17.93-44.59 45.3-44.59m-.12 67.53c10.64 0 17.45-8.13 17.45-22.95s-6.81-23.07-17.45-23.07-17.45 8.13-17.45 23.07 6.81 22.95 17.45 22.95m52.24-65.74h28.45l23.67 44.35v-44.35h27.13v85.47h-28.93l-23.19-41.36v41.36h-27.13zm112.84 54.63c.84 7.53 4.78 11.6 11.83 11.6 5.26 0 8.97-1.79 8.97-5.74 0-3.59-1.67-5.5-15.18-8.25-22.83-4.54-31.92-10.76-31.92-26.9s13.27-27.13 35.86-27.13c24.62 0 37.06 13.39 37.89 32.04h-27.97c-.6-6.81-4.18-11-9.92-11-5.14 0-8.13 2.27-8.13 5.74 0 4.06 3.59 5.98 14.46 7.77 25.7 4.3 32.63 13.27 32.63 26.89 0 16.97-13.63 27.61-36.7 27.61-25.58 0-39.21-12.67-39.93-32.63h28.09Z" fill="#ffffff" data-color="3"/>
    </g>
</svg>
